name Run_500 02_newCOP3_v24.mot
datacolumns 19
datarows 52
range 2.745 2.796
DataType=double
version=3
OpenSimVersion=4.3-2021-08-27-4bc7ad9
endheader
time	R_ground_force_vx	R_ground_force_vy	R_ground_force_vz	R_ground_force_px	R_ground_force_py	R_ground_force_pz	L_ground_force_vx	L_ground_force_vy	L_ground_force_vz	L_ground_force_px	L_ground_force_py	L_ground_force_pz	R_ground_torque_x	R_ground_torque_y	R_ground_torque_z	L_ground_torque_x	L_ground_torque_y	L_ground_torque_z
2.745	-156.544907	1433.431885	-19.115843	0.8257949999999999	0	-0.282291	0	0	0	0	0	0	-0	2.949676	-0	0	0	0
2.746	-153.838669	1438.135498	-16.997833	0.82286	0	-0.281942	0	0	0	0	0	0	-0	2.833536	-0	0	0	0
2.747	-151.120483	1442.11731	-15.750794	0.819986	0	-0.281612	0	0	0	0	0	0	-0	2.701056	-0	0	0	0
2.748	-148.39212	1445.39917	-15.38196	0.817165	0	-0.2813	0	0	0	0	0	0	-0	2.552003	-0	0	0	0
2.749	-145.657715	1448.006714	-15.875733	0.814388	0	-0.281008	0	0	0	0	0	0	-0	2.386407	-0	0	0	0
2.75	-142.923019	1449.968994	-17.195057	0.811646	0	-0.280733	0	0	0	0	0	0	-0	2.204545	-0	0	0	0
2.751	-140.194778	1451.317749	-19.283283	0.808931	0	-0.280474	0	0	0	0	0	0	-0	2.006938	-0	0	0	0
2.752	-137.479919	1452.087402	-22.0665	0.806234	0	-0.280232	0	0	0	0	0	0	-0	1.794326	-0	0	0	0
2.753	-134.785034	1452.314575	-25.456228	0.803545	0	-0.280005	0	0	0	0	0	0	-0	1.567659	-0	0	0	0
2.754	-132.115875	1452.037598	-29.352381	0.800857	0	-0.279791	0	0	0	0	0	0	-0	1.328074	-0	0	0	0
2.755	-129.476959	1451.297241	-33.646416	0.798161	0	-0.279591	0	0	0	0	0	0	-0	1.076874	-0	0	0	0
2.756	-126.87149	1450.135742	-38.224552	0.795449	0	-0.279402	0	0	0	0	0	0	-0	0.815506	-0	0	0	0
2.757	-124.301163	1448.59668	-42.970982	0.7927149999999999	0	-0.279224	0	0	0	0	0	0	-0	0.545536	-0	0	0	0
2.758	-121.766281	1446.724854	-47.770939	0.78995	0	-0.279056	0	0	0	0	0	0	-0	0.268627	-0	0	0	0
2.759	-119.2658	1444.56543	-52.513588	0.787147	0	-0.278896	0	0	0	0	0	0	0	-0.013488	0	0	0	0
2.76	-116.797432	1442.163208	-57.094631	0.784301	0	-0.278744	0	0	0	0	0	0	0	-0.299026	0	0	0	0
2.761	-114.357765	1439.562256	-61.418591	0.781404	0	-0.278599	0	0	0	0	0	0	0	-0.586184	0	0	0	0
2.762	-111.942299	1436.804688	-65.400696	0.778451	0	-0.278459	0	0	0	0	0	0	0	-0.873153	0	0	0	0
2.763	-109.545486	1433.930542	-68.968384	0.775436	0	-0.278324	0	0	0	0	0	0	0	-1.158149	0	0	0	0
2.764	-107.160667	1430.976074	-72.062355	0.772355	0	-0.278193	0	0	0	0	0	0	0	-1.439428	0	0	0	0
2.765	-104.780052	1427.973999	-74.637253	0.7692020000000001	0	-0.278065	0	0	0	0	0	0	0	-1.715303	0	0	0	0
2.766	-102.394547	1424.952515	-76.66188	0.765974	0	-0.27794	0	0	0	0	0	0	0	-1.984167	0	0	0	0
2.767	-99.993713	1421.934937	-78.11908699999999	0.762666	0	-0.277818	0	0	0	0	0	0	0	-2.244505	0	0	0	0
2.768	-97.56568900000001	1418.939575	-79.005264	0.759275	0	-0.277697	0	0	0	0	0	0	0	-2.494907	0	0	0	0
2.769	-95.097137	1415.979492	-79.329544	0.755798	0	-0.277577	0	0	0	0	0	0	0	-2.73408	0	0	0	0
2.77	-92.573296	1413.062866	-79.11273199999999	0.752233	0	-0.277459	0	0	0	0	0	0	0	-2.960859	0	0	0	0
2.771	-89.978104	1410.192383	-78.386009	0.748577	0	-0.277341	0	0	0	0	0	0	0	-3.174215	0	0	0	0
2.772	-87.29439499999999	1407.366333	-77.18948399999999	0.74483	0	-0.277224	0	0	0	0	0	0	0	-3.373257	0	0	0	0
2.773	-84.504158	1404.578613	-75.57054100000001	0.740989	0	-0.277108	0	0	0	0	0	0	0	-3.557242	0	0	0	0
2.774	-81.588875	1401.818848	-73.582207	0.737056	0	-0.276992	0	0	0	0	0	0	0	-3.725572	0	0	0	0
2.775	-78.529884	1399.073364	-71.28140999999999	0.733028	0	-0.276878	0	0	0	0	0	0	0	-3.877796	0	0	0	0
2.776	-75.308815	1396.325806	-68.72727999999999	0.728908	0	-0.276765	0	0	0	0	0	0	0	-4.013611	0	0	0	0
2.777	-71.907921	1393.557007	-65.97946899999999	0.724696	0	-0.276653	0	0	0	0	0	0	0	-4.132858	0	0	0	0
2.778	-68.31053199999999	1390.746582	-63.096615	0.720394	0	-0.276543	0	0	0	0	0	0	0	-4.235518	0	0	0	0
2.779	-64.501366	1387.872803	-60.134842	0.7160029999999999	0	-0.276435	0	0	0	0	0	0	0	-4.321707	0	0	0	0
2.78	-60.466869	1384.913818	-57.146511	0.711527	0	-0.276329	0	0	0	0	0	0	0	-4.391673	0	0	0	0
2.781	-56.195488	1381.847656	-54.179073	0.706968	0	-0.276226	0	0	0	0	0	0	0	-4.445783	0	0	0	0
2.782	-51.677906	1378.653442	-51.274193	0.702329	0	-0.276127	0	0	0	0	0	0	0	-4.484521	0	0	0	0
2.783	-46.907238	1375.311401	-48.467052	0.697614	0	-0.276032	0	0	0	0	0	0	0	-4.508477	0	0	0	0
2.784	-41.8792	1371.803101	-45.785912	0.692829	0	-0.27594	0	0	0	0	0	0	0	-4.518338	0	0	0	0
2.785	-36.592224	1368.112183	-43.251904	0.687976	0	-0.275853	0	0	0	0	0	0	0	-4.51488	0	0	0	0
2.786	-31.047554	1364.224121	-40.879074	0.6830619999999999	0	-0.275772	0	0	0	0	0	0	0	-4.498956	0	0	0	0
2.787	-25.249319	1360.126587	-38.674618	0.678091	0	-0.275696	0	0	0	0	0	0	0	-4.471488	0	0	0	0
2.788	-19.20454	1355.80896	-36.63937	0.673068	0	-0.275626	0	0	0	0	0	0	0	-4.433457	0	0	0	0
2.789	-12.923106	1351.262695	-34.768398	0.668	0	-0.275562	0	0	0	0	0	0	0	-4.38589	0	0	0	0
2.79	-6.417696	1346.480957	-33.051815	0.662893	0	-0.275504	0	0	0	0	0	0	0	-4.329853	0	0	0	0
2.791	0.296375	1341.45874	-31.475595	0.657751	0	-0.275453	0	0	0	0	0	0	0	-4.266439	0	0	0	0
2.792	7.201374	1336.192139	-30.022539	0.652582	0	-0.275409	0	0	0	0	0	0	0	-4.19676	0	0	0	0
2.793	14.277451	1330.678711	-28.673164	0.647391	0	-0.275372	0	0	0	0	0	0	0	-4.121935	0	0	0	0
2.794	21.503017	1324.917236	-27.406618	0.6421829999999999	0	-0.275342	0	0	0	0	0	0	0	-4.043082	0	0	0	0
2.795	28.855198	1318.907349	-26.201492	0.636966	0	-0.275319	0	0	0	0	0	0	0	-3.961308	0	0	0	0
2.796	36.310341	1312.64978	-25.036545	0.631744	0	-0.275304	0	0	0	0	0	0	0	-3.8777	0	0	0	0
